<svg width="1910" height="471" viewBox="0 0 1910 471" fill="none" xmlns="http://www.w3.org/2000/svg">
<path fill-rule="evenodd" clip-rule="evenodd" d="M184.983 0L230.968 73.5316L91.969 301.082L0 303.07L184.983 0Z" fill="#373739"/>
<path fill-rule="evenodd" clip-rule="evenodd" d="M378.327 292.139H461.935L291.583 7.94946L183.938 184.823L246.644 292.139L225.742 329.899L160.946 222.582L117.051 295.12L225.742 471L332.342 292.139L266.501 184.823L290.538 147.063L378.327 292.139Z" fill="#0860A8"/>
<path d="M540.165 125.545H567.662L596.703 196.398H597.939L626.98 125.545H654.477V231H632.85V162.362H631.975L604.684 230.485H589.958L562.667 162.104H561.792V231H540.165V125.545ZM691.023 231H667.131L703.535 125.545H732.267L768.62 231H744.728L718.313 149.643H717.489L691.023 231ZM689.529 189.549H745.964V206.953H689.529V189.549ZM846.282 159.633C845.561 157.127 844.549 154.913 843.244 152.99C841.94 151.034 840.344 149.386 838.456 148.047C836.602 146.674 834.474 145.627 832.071 144.906C829.702 144.185 827.076 143.825 824.192 143.825C818.803 143.825 814.066 145.164 809.981 147.841C805.93 150.519 802.772 154.415 800.506 159.53C798.241 164.61 797.108 170.824 797.108 178.17C797.108 185.516 798.224 191.763 800.455 196.913C802.686 202.062 805.844 205.992 809.929 208.704C814.014 211.382 818.837 212.721 824.398 212.721C829.445 212.721 833.753 211.828 837.323 210.043C840.927 208.224 843.673 205.666 845.561 202.371C847.484 199.075 848.445 195.179 848.445 190.682L852.976 191.352H825.789V174.565H869.917V187.85C869.917 197.119 867.96 205.083 864.047 211.742C860.134 218.367 854.744 223.482 847.879 227.087C841.013 230.657 833.152 232.442 824.295 232.442C814.409 232.442 805.724 230.262 798.241 225.902C790.757 221.508 784.922 215.278 780.734 207.211C776.58 199.11 774.503 189.498 774.503 178.376C774.503 169.828 775.739 162.207 778.211 155.513C780.717 148.785 784.218 143.087 788.715 138.418C793.212 133.75 798.447 130.197 804.42 127.76C810.393 125.322 816.864 124.104 823.832 124.104C829.805 124.104 835.366 124.979 840.515 126.73C845.664 128.446 850.23 130.883 854.212 134.042C858.228 137.2 861.507 140.959 864.047 145.318C866.587 149.643 868.218 154.415 868.939 159.633H846.282ZM908.96 125.545V231H886.665V125.545H908.96ZM1020.35 162.465H997.796C997.384 159.547 996.543 156.955 995.273 154.69C994.003 152.39 992.372 150.433 990.381 148.82C988.39 147.206 986.09 145.97 983.481 145.112C980.907 144.254 978.109 143.825 975.088 143.825C969.63 143.825 964.876 145.181 960.825 147.893C956.774 150.57 953.633 154.484 951.402 159.633C949.171 164.748 948.055 170.961 948.055 178.273C948.055 185.79 949.171 192.107 951.402 197.222C953.668 202.336 956.826 206.198 960.877 208.807C964.927 211.416 969.613 212.721 974.934 212.721C977.92 212.721 980.684 212.326 983.224 211.536C985.798 210.747 988.081 209.597 990.072 208.086C992.063 206.542 993.711 204.671 995.015 202.474C996.354 200.277 997.281 197.771 997.796 194.956L1020.35 195.059C1019.77 199.899 1018.31 204.568 1015.97 209.065C1013.67 213.527 1010.57 217.526 1006.65 221.062C1002.77 224.564 998.139 227.344 992.75 229.404C987.395 231.429 981.336 232.442 974.573 232.442C965.168 232.442 956.757 230.313 949.343 226.057C941.962 221.8 936.126 215.638 931.835 207.571C927.579 199.504 925.45 189.738 925.45 178.273C925.45 166.773 927.613 156.99 931.938 148.923C936.264 140.856 942.134 134.711 949.548 130.489C956.963 126.232 965.305 124.104 974.573 124.104C980.684 124.104 986.348 124.962 991.566 126.678C996.818 128.395 1001.47 130.901 1005.52 134.196C1009.57 137.457 1012.87 141.456 1015.41 146.194C1017.98 150.931 1019.63 156.355 1020.35 162.465ZM1052.53 231H1028.64L1065.04 125.545H1093.78L1130.13 231H1106.24L1079.82 149.643H1079L1052.53 231ZM1051.04 189.549H1107.47V206.953H1051.04V189.549ZM1142.82 231V125.545H1165.12V212.618H1210.33V231H1142.82ZM1225.09 231V125.545H1247.39V212.618H1292.6V231H1225.09ZM1287.73 125.545H1312.7L1336.75 170.961H1337.78L1361.83 125.545H1386.8L1348.34 193.72V231H1326.2V193.72L1287.73 125.545Z" fill="#0860A8"/>
<path d="M1433.82 236.015C1426.38 236.015 1419.71 234.807 1413.81 232.39C1407.91 229.973 1403.18 226.397 1399.6 221.66C1396.12 216.923 1394.28 211.22 1394.09 204.55H1420.48C1420.87 208.32 1422.17 211.22 1424.4 213.25C1426.62 215.183 1429.52 216.15 1433.1 216.15C1436.77 216.15 1439.67 215.328 1441.8 213.685C1443.92 211.945 1444.99 209.577 1444.99 206.58C1444.99 204.067 1444.12 201.988 1442.38 200.345C1440.73 198.702 1438.65 197.348 1436.14 196.285C1433.72 195.222 1430.24 194.013 1425.7 192.66C1419.13 190.63 1413.76 188.6 1409.61 186.57C1405.45 184.54 1401.87 181.543 1398.88 177.58C1395.88 173.617 1394.38 168.445 1394.38 162.065C1394.38 152.592 1397.81 145.197 1404.68 139.88C1411.54 134.467 1420.48 131.76 1431.5 131.76C1442.71 131.76 1451.75 134.467 1458.62 139.88C1465.48 145.197 1469.15 152.64 1469.64 162.21H1442.81C1442.62 158.923 1441.41 156.362 1439.19 154.525C1436.96 152.592 1434.11 151.625 1430.63 151.625C1427.63 151.625 1425.22 152.447 1423.38 154.09C1421.54 155.637 1420.63 157.908 1420.63 160.905C1420.63 164.192 1422.17 166.753 1425.26 168.59C1428.36 170.427 1433.19 172.408 1439.77 174.535C1446.34 176.758 1451.66 178.885 1455.72 180.915C1459.87 182.945 1463.45 185.893 1466.45 189.76C1469.44 193.627 1470.94 198.605 1470.94 204.695C1470.94 210.495 1469.44 215.763 1466.45 220.5C1463.55 225.237 1459.29 229.007 1453.69 231.81C1448.08 234.613 1441.46 236.015 1433.82 236.015ZM1534.34 236.015C1524.77 236.015 1515.97 233.792 1507.95 229.345C1500.02 224.898 1493.69 218.712 1488.95 210.785C1484.31 202.762 1481.99 193.772 1481.99 183.815C1481.99 173.858 1484.31 164.917 1488.95 156.99C1493.69 149.063 1500.02 142.877 1507.95 138.43C1515.97 133.983 1524.77 131.76 1534.34 131.76C1543.91 131.76 1552.66 133.983 1560.58 138.43C1568.61 142.877 1574.89 149.063 1579.43 156.99C1584.07 164.917 1586.39 173.858 1586.39 183.815C1586.39 193.772 1584.07 202.762 1579.43 210.785C1574.79 218.712 1568.51 224.898 1560.58 229.345C1552.66 233.792 1543.91 236.015 1534.34 236.015ZM1534.34 213.395C1542.46 213.395 1548.94 210.688 1553.77 205.275C1558.7 199.862 1561.16 192.708 1561.16 183.815C1561.16 174.825 1558.7 167.672 1553.77 162.355C1548.94 156.942 1542.46 154.235 1534.34 154.235C1526.12 154.235 1519.55 156.893 1514.62 162.21C1509.79 167.527 1507.37 174.728 1507.37 183.815C1507.37 192.805 1509.79 200.007 1514.62 205.42C1519.55 210.737 1526.12 213.395 1534.34 213.395ZM1666.45 133.21V153.075H1624.98V174.535H1656.01V193.82H1624.98V235H1600.19V133.21H1666.45ZM1752.71 133.21V153.075H1725.74V235H1700.95V153.075H1673.98V133.21H1752.71Z" fill="#373739"/>
<path d="M560.868 362.532C555.953 362.532 551.469 361.392 547.416 359.112C543.363 356.781 540.145 353.564 537.764 349.46C535.433 345.305 534.268 340.644 534.268 335.476C534.268 330.308 535.433 325.672 537.764 321.568C540.145 317.413 543.363 314.196 547.416 311.916C551.469 309.585 555.953 308.42 560.868 308.42C565.833 308.42 570.343 309.585 574.396 311.916C578.449 314.196 581.641 317.388 583.972 321.492C586.303 325.596 587.468 330.257 587.468 335.476C587.468 340.695 586.303 345.356 583.972 349.46C581.641 353.564 578.449 356.781 574.396 359.112C570.343 361.392 565.833 362.532 560.868 362.532ZM560.868 356.528C564.567 356.528 567.885 355.667 570.824 353.944C573.813 352.221 576.144 349.764 577.816 346.572C579.539 343.38 580.4 339.681 580.4 335.476C580.4 331.22 579.539 327.521 577.816 324.38C576.144 321.188 573.839 318.731 570.9 317.008C567.961 315.285 564.617 314.424 560.868 314.424C557.119 314.424 553.775 315.285 550.836 317.008C547.897 318.731 545.567 321.188 543.844 324.38C542.172 327.521 541.336 331.22 541.336 335.476C541.336 339.681 542.172 343.38 543.844 346.572C545.567 349.764 547.897 352.221 550.836 353.944C553.825 355.667 557.169 356.528 560.868 356.528ZM603.362 309.028V342.544C603.362 347.256 604.502 350.752 606.782 353.032C609.113 355.312 612.33 356.452 616.434 356.452C620.487 356.452 623.654 355.312 625.934 353.032C628.265 350.752 629.43 347.256 629.43 342.544V309.028H636.346V342.468C636.346 346.876 635.459 350.6 633.686 353.64C631.913 356.629 629.506 358.859 626.466 360.328C623.477 361.797 620.107 362.532 616.358 362.532C612.609 362.532 609.214 361.797 606.174 360.328C603.185 358.859 600.803 356.629 599.03 353.64C597.307 350.6 596.446 346.876 596.446 342.468V309.028H603.362ZM675.775 362L663.159 340.34H654.799V362H647.883V309.028H664.983C668.986 309.028 672.355 309.712 675.091 311.08C677.878 312.448 679.955 314.297 681.323 316.628C682.691 318.959 683.375 321.619 683.375 324.608C683.375 328.256 682.311 331.473 680.183 334.26C678.106 337.047 674.965 338.896 670.759 339.808L684.059 362H675.775ZM654.799 334.792H664.983C668.733 334.792 671.545 333.88 673.419 332.056C675.294 330.181 676.231 327.699 676.231 324.608C676.231 321.467 675.294 319.035 673.419 317.312C671.595 315.589 668.783 314.728 664.983 314.728H654.799V334.792ZM721.299 314.652V332.36H740.603V338.06H721.299V356.3H742.883V362H714.383V308.952H742.883V314.652H721.299ZM794.996 362H788.08L760.264 319.82V362H753.348V308.952H760.264L788.08 351.056V308.952H794.996V362ZM839.39 309.028V314.652H824.95V362H818.034V314.652H803.518V309.028H839.39ZM888.715 309.028V362H881.799V337.984H854.819V362H847.903V309.028H854.819V332.284H881.799V309.028H888.715ZM907.288 309.028V342.544C907.288 347.256 908.428 350.752 910.708 353.032C913.039 355.312 916.256 356.452 920.36 356.452C924.413 356.452 927.58 355.312 929.86 353.032C932.191 350.752 933.356 347.256 933.356 342.544V309.028H940.272V342.468C940.272 346.876 939.385 350.6 937.612 353.64C935.839 356.629 933.432 358.859 930.392 360.328C927.403 361.797 924.033 362.532 920.284 362.532C916.535 362.532 913.14 361.797 910.1 360.328C907.111 358.859 904.729 356.629 902.956 353.64C901.233 350.6 900.372 346.876 900.372 342.468V309.028H907.288ZM968.605 362.532C965.109 362.532 961.968 361.924 959.181 360.708C956.445 359.441 954.292 357.719 952.721 355.54C951.15 353.311 950.34 350.752 950.289 347.864H957.661C957.914 350.347 958.928 352.449 960.701 354.172C962.525 355.844 965.16 356.68 968.605 356.68C971.898 356.68 974.482 355.869 976.357 354.248C978.282 352.576 979.245 350.448 979.245 347.864C979.245 345.837 978.688 344.191 977.573 342.924C976.458 341.657 975.065 340.695 973.393 340.036C971.721 339.377 969.466 338.668 966.629 337.908C963.133 336.996 960.321 336.084 958.193 335.172C956.116 334.26 954.317 332.841 952.797 330.916C951.328 328.94 950.593 326.305 950.593 323.012C950.593 320.124 951.328 317.565 952.797 315.336C954.266 313.107 956.318 311.384 958.953 310.168C961.638 308.952 964.704 308.344 968.149 308.344C973.114 308.344 977.168 309.585 980.309 312.068C983.501 314.551 985.3 317.844 985.705 321.948H978.105C977.852 319.921 976.788 318.148 974.913 316.628C973.038 315.057 970.556 314.272 967.465 314.272C964.577 314.272 962.221 315.032 960.397 316.552C958.573 318.021 957.661 320.099 957.661 322.784C957.661 324.709 958.193 326.28 959.257 327.496C960.372 328.712 961.714 329.649 963.285 330.308C964.906 330.916 967.161 331.625 970.049 332.436C973.545 333.399 976.357 334.361 978.485 335.324C980.613 336.236 982.437 337.68 983.957 339.656C985.477 341.581 986.237 344.216 986.237 347.56C986.237 350.144 985.553 352.576 984.185 354.856C982.817 357.136 980.79 358.985 978.105 360.404C975.42 361.823 972.253 362.532 968.605 362.532ZM1003.33 309.028V362H996.415V309.028H1003.33ZM1046.43 350.22H1023.33L1019.07 362H1011.77L1030.93 309.332H1038.91L1057.98 362H1050.69L1046.43 350.22ZM1044.45 344.596L1034.88 317.844L1025.3 344.596H1044.45ZM1083.12 362.532C1079.63 362.532 1076.49 361.924 1073.7 360.708C1070.96 359.441 1068.81 357.719 1067.24 355.54C1065.67 353.311 1064.86 350.752 1064.81 347.864H1072.18C1072.43 350.347 1073.45 352.449 1075.22 354.172C1077.04 355.844 1079.68 356.68 1083.12 356.68C1086.42 356.68 1089 355.869 1090.88 354.248C1092.8 352.576 1093.76 350.448 1093.76 347.864C1093.76 345.837 1093.21 344.191 1092.09 342.924C1090.98 341.657 1089.58 340.695 1087.91 340.036C1086.24 339.377 1083.99 338.668 1081.15 337.908C1077.65 336.996 1074.84 336.084 1072.71 335.172C1070.64 334.26 1068.84 332.841 1067.32 330.916C1065.85 328.94 1065.11 326.305 1065.11 323.012C1065.11 320.124 1065.85 317.565 1067.32 315.336C1068.79 313.107 1070.84 311.384 1073.47 310.168C1076.16 308.952 1079.22 308.344 1082.67 308.344C1087.63 308.344 1091.69 309.585 1094.83 312.068C1098.02 314.551 1099.82 317.844 1100.22 321.948H1092.62C1092.37 319.921 1091.31 318.148 1089.43 316.628C1087.56 315.057 1085.08 314.272 1081.98 314.272C1079.1 314.272 1076.74 315.032 1074.92 316.552C1073.09 318.021 1072.18 320.099 1072.18 322.784C1072.18 324.709 1072.71 326.28 1073.78 327.496C1074.89 328.712 1076.23 329.649 1077.8 330.308C1079.43 330.916 1081.68 331.625 1084.57 332.436C1088.06 333.399 1090.88 334.361 1093 335.324C1095.13 336.236 1096.96 337.68 1098.48 339.656C1100 341.581 1100.76 344.216 1100.76 347.56C1100.76 350.144 1100.07 352.576 1098.7 354.856C1097.34 357.136 1095.31 358.985 1092.62 360.404C1089.94 361.823 1086.77 362.532 1083.12 362.532ZM1164.67 309.408V362H1157.75V322.784L1140.27 362H1135.41L1117.85 322.708V362H1110.93V309.408H1118.38L1137.84 352.88L1157.29 309.408H1164.67ZM1183.54 352.424L1175.03 372.868H1170.39L1175.94 352.424H1183.54ZM1248.81 309.028L1231.56 342.012V362H1224.64V342.012L1207.32 309.028H1214.99L1228.06 335.856L1241.14 309.028H1248.81ZM1280.12 362.532C1275.21 362.532 1270.72 361.392 1266.67 359.112C1262.62 356.781 1259.4 353.564 1257.02 349.46C1254.69 345.305 1253.52 340.644 1253.52 335.476C1253.52 330.308 1254.69 325.672 1257.02 321.568C1259.4 317.413 1262.62 314.196 1266.67 311.916C1270.72 309.585 1275.21 308.42 1280.12 308.42C1285.09 308.42 1289.6 309.585 1293.65 311.916C1297.7 314.196 1300.9 317.388 1303.23 321.492C1305.56 325.596 1306.72 330.257 1306.72 335.476C1306.72 340.695 1305.56 345.356 1303.23 349.46C1300.9 353.564 1297.7 356.781 1293.65 359.112C1289.6 361.392 1285.09 362.532 1280.12 362.532ZM1280.12 356.528C1283.82 356.528 1287.14 355.667 1290.08 353.944C1293.07 352.221 1295.4 349.764 1297.07 346.572C1298.79 343.38 1299.65 339.681 1299.65 335.476C1299.65 331.22 1298.79 327.521 1297.07 324.38C1295.4 321.188 1293.09 318.731 1290.15 317.008C1287.22 315.285 1283.87 314.424 1280.12 314.424C1276.37 314.424 1273.03 315.285 1270.09 317.008C1267.15 318.731 1264.82 321.188 1263.1 324.38C1261.43 327.521 1260.59 331.22 1260.59 335.476C1260.59 339.681 1261.43 343.38 1263.1 346.572C1264.82 349.764 1267.15 352.221 1270.09 353.944C1273.08 355.667 1276.42 356.528 1280.12 356.528ZM1322.62 309.028V342.544C1322.62 347.256 1323.76 350.752 1326.04 353.032C1328.37 355.312 1331.58 356.452 1335.69 356.452C1339.74 356.452 1342.91 355.312 1345.19 353.032C1347.52 350.752 1348.68 347.256 1348.68 342.544V309.028H1355.6V342.468C1355.6 346.876 1354.71 350.6 1352.94 353.64C1351.17 356.629 1348.76 358.859 1345.72 360.328C1342.73 361.797 1339.36 362.532 1335.61 362.532C1331.86 362.532 1328.47 361.797 1325.43 360.328C1322.44 358.859 1320.06 356.629 1318.28 353.64C1316.56 350.6 1315.7 346.876 1315.7 342.468V309.028H1322.62ZM1395.03 362L1382.41 340.34H1374.05V362H1367.14V309.028H1384.24C1388.24 309.028 1391.61 309.712 1394.35 311.08C1397.13 312.448 1399.21 314.297 1400.58 316.628C1401.95 318.959 1402.63 321.619 1402.63 324.608C1402.63 328.256 1401.57 331.473 1399.44 334.26C1397.36 337.047 1394.22 338.896 1390.01 339.808L1403.31 362H1395.03ZM1374.05 334.792H1384.24C1387.99 334.792 1390.8 333.88 1392.67 332.056C1394.55 330.181 1395.49 327.699 1395.49 324.608C1395.49 321.467 1394.55 319.035 1392.67 317.312C1390.85 315.589 1388.04 314.728 1384.24 314.728H1374.05V334.792ZM1473.77 324.38C1472.3 321.289 1470.17 318.908 1467.38 317.236C1464.59 315.513 1461.35 314.652 1457.65 314.652C1453.95 314.652 1450.61 315.513 1447.62 317.236C1444.68 318.908 1442.35 321.34 1440.63 324.532C1438.96 327.673 1438.12 331.321 1438.12 335.476C1438.12 339.631 1438.96 343.279 1440.63 346.42C1442.35 349.561 1444.68 351.993 1447.62 353.716C1450.61 355.388 1453.95 356.224 1457.65 356.224C1462.82 356.224 1467.08 354.679 1470.42 351.588C1473.77 348.497 1475.72 344.317 1476.27 339.048H1455.15V333.424H1483.65V338.744C1483.24 343.101 1481.87 347.104 1479.54 350.752C1477.21 354.349 1474.15 357.212 1470.35 359.34C1466.55 361.417 1462.31 362.456 1457.65 362.456C1452.74 362.456 1448.25 361.316 1444.2 359.036C1440.15 356.705 1436.93 353.488 1434.55 349.384C1432.22 345.28 1431.05 340.644 1431.05 335.476C1431.05 330.308 1432.22 325.672 1434.55 321.568C1436.93 317.413 1440.15 314.196 1444.2 311.916C1448.25 309.585 1452.74 308.42 1457.65 308.42C1463.28 308.42 1468.24 309.813 1472.55 312.6C1476.91 315.387 1480.07 319.313 1482.05 324.38H1473.77ZM1520.68 362L1508.07 340.34H1499.71V362H1492.79V309.028H1509.89C1513.89 309.028 1517.26 309.712 1520 311.08C1522.78 312.448 1524.86 314.297 1526.23 316.628C1527.6 318.959 1528.28 321.619 1528.28 324.608C1528.28 328.256 1527.22 331.473 1525.09 334.26C1523.01 337.047 1519.87 338.896 1515.67 339.808L1528.97 362H1520.68ZM1499.71 334.792H1509.89C1513.64 334.792 1516.45 333.88 1518.33 332.056C1520.2 330.181 1521.14 327.699 1521.14 324.608C1521.14 321.467 1520.2 319.035 1518.33 317.312C1516.5 315.589 1513.69 314.728 1509.89 314.728H1499.71V334.792ZM1563.04 362.532C1558.13 362.532 1553.65 361.392 1549.59 359.112C1545.54 356.781 1542.32 353.564 1539.94 349.46C1537.61 345.305 1536.44 340.644 1536.44 335.476C1536.44 330.308 1537.61 325.672 1539.94 321.568C1542.32 317.413 1545.54 314.196 1549.59 311.916C1553.65 309.585 1558.13 308.42 1563.04 308.42C1568.01 308.42 1572.52 309.585 1576.57 311.916C1580.63 314.196 1583.82 317.388 1586.15 321.492C1588.48 325.596 1589.64 330.257 1589.64 335.476C1589.64 340.695 1588.48 345.356 1586.15 349.46C1583.82 353.564 1580.63 356.781 1576.57 359.112C1572.52 361.392 1568.01 362.532 1563.04 362.532ZM1563.04 356.528C1566.74 356.528 1570.06 355.667 1573 353.944C1575.99 352.221 1578.32 349.764 1579.99 346.572C1581.71 343.38 1582.58 339.681 1582.58 335.476C1582.58 331.22 1581.71 327.521 1579.99 324.38C1578.32 321.188 1576.01 318.731 1573.08 317.008C1570.14 315.285 1566.79 314.424 1563.04 314.424C1559.29 314.424 1555.95 315.285 1553.01 317.008C1550.07 318.731 1547.74 321.188 1546.02 324.38C1544.35 327.521 1543.51 331.22 1543.51 335.476C1543.51 339.681 1544.35 343.38 1546.02 346.572C1547.74 349.764 1550.07 352.221 1553.01 353.944C1556 355.667 1559.35 356.528 1563.04 356.528ZM1665.35 309.028L1650 362H1642.25L1629.93 319.364L1617.17 362L1609.49 362.076L1594.67 309.028H1602.04L1613.59 353.944L1626.36 309.028H1634.11L1646.27 353.792L1657.9 309.028H1665.35ZM1705.52 309.028V314.652H1691.08V362H1684.17V314.652H1669.65V309.028H1705.52ZM1754.85 309.028V362H1747.93V337.984H1720.95V362H1714.04V309.028H1720.95V332.284H1747.93V309.028H1754.85Z" fill="black"/>
</svg>
